<svg width="142" height="142" viewBox="0 0 142 142" fill="none" xmlns="http://www.w3.org/2000/svg">
<path d="M65.12 2.24005L43.04 0C42.72 8.32001 40.96 17.92 38.72 26.72C33.76 27.2 28.96 27.36 24.16 27.36C18.24 27.36 9.76 27.0401 2.88 26.2401L4.32 44.8C11.2 45.2801 17.76 45.4401 24.32 45.4401C27.04 45.4401 29.76 45.44 32.64 45.28C25.6 62.56 12.64 86.08 0 101.76L19.36 111.68C32.32 93.6001 45.92 65.6 53.6 43.2C64.32 41.6 74.24 39.52 81.6 37.6L80.96 19.04C74.72 20.96 67.2 22.72 59.36 24.16C61.76 15.52 63.84 7.36005 65.12 2.24005ZM56.8 112.96C56.8 107.36 62.72 103.2 72 103.2C76.48 103.2 80.8 103.84 84.96 104.8C84.96 106.08 84.96 107.04 84.96 108C84.96 116.8 81.6 122.88 70.56 122.88C61.76 122.88 56.8 118.88 56.8 112.96ZM102.56 52.0001H82.56C82.88 61.7601 83.68 76 84.32 87.84C80.64 87.52 77.12 87.2 73.28 87.2C51.04 87.2 37.92 99.2001 37.92 114.88C37.92 132.48 53.6 141.28 73.44 141.28C96.16 141.28 104.32 129.76 104.32 114.88C104.32 114.4 104.32 113.76 104.32 113.28C113.12 118.56 120.32 125.28 125.92 130.4L136.64 113.28C128.48 105.92 117.28 97.92 103.52 92.8C103.2 84.8 102.72 77.12 102.56 72.48C102.4 65.44 102.08 58.7201 102.56 52.0001ZM130.08 60.48L141.44 43.6801C133.28 37.7601 113.44 26.88 101.92 21.92L91.68 37.76C102.56 42.72 120.8 53.12 130.08 60.48Z" fill="#5C577D"/>
</svg>
